<svg width="34" height="35" viewBox="0 0 34 35" fill="none" xmlns="http://www.w3.org/2000/svg">
<path d="M11.3262 27.582C11.3262 27.7188 11.1895 27.7871 10.9844 27.7871C10.7793 27.8555 10.6426 27.7188 10.6426 27.582C10.6426 27.4453 10.7793 27.3086 10.9844 27.3086C11.1895 27.3086 11.3262 27.4453 11.3262 27.582ZM9.20703 27.2402C9.27539 27.1035 9.48047 27.0352 9.68555 27.1035C9.89062 27.1719 9.95898 27.3086 9.95898 27.4453C9.89062 27.582 9.68555 27.6504 9.54883 27.582C9.34375 27.582 9.20703 27.377 9.20703 27.2402ZM12.2832 27.1719C12.4199 27.1035 12.625 27.2402 12.625 27.377C12.6934 27.5137 12.5566 27.582 12.3516 27.6504C12.1465 27.7188 11.9414 27.6504 11.9414 27.5137C11.9414 27.3086 12.0781 27.1719 12.2832 27.1719ZM16.7266 0.921875C26.2285 0.921875 33.9531 8.16797 33.9531 17.6016C33.9531 25.1895 29.3047 31.6836 22.4688 33.9395C21.5801 34.1445 21.2383 33.5977 21.2383 33.1191C21.2383 32.5723 21.3066 29.7012 21.3066 27.4453C21.3066 25.8047 20.7598 24.7793 20.1445 24.2324C23.9727 23.8223 28.0059 23.2754 28.0059 16.7129C28.0059 14.7988 27.3223 13.9102 26.2285 12.6797C26.3652 12.2012 26.9805 10.4238 26.0234 8.03125C24.5879 7.55273 21.3066 9.87695 21.3066 9.87695C19.9395 9.4668 18.5039 9.33008 17 9.33008C15.5645 9.33008 14.1289 9.4668 12.7617 9.87695C12.7617 9.87695 9.41211 7.62109 8.04492 8.03125C7.08789 10.4238 7.63477 12.2012 7.83984 12.6797C6.74609 13.9102 6.19922 14.7988 6.19922 16.7129C6.19922 23.2754 10.0957 23.8223 13.9238 24.2324C13.377 24.7109 12.9668 25.4629 12.8301 26.5566C11.8047 27.0352 9.34375 27.7871 7.83984 25.1211C6.88281 23.4805 5.17383 23.3438 5.17383 23.3438C3.5332 23.3438 5.10547 24.4375 5.10547 24.4375C6.19922 24.916 6.95117 26.8984 6.95117 26.8984C7.97656 29.9746 12.7617 28.9492 12.7617 28.9492C12.7617 30.3848 12.7617 32.709 12.7617 33.1875C12.7617 33.5977 12.4883 34.1445 11.5996 34.0078C4.76367 31.6836 0.046875 25.1895 0.046875 17.6016C0.046875 8.16797 7.29297 0.921875 16.7266 0.921875ZM6.67773 24.5059C6.74609 24.4375 6.88281 24.5059 7.01953 24.5742C7.15625 24.7109 7.15625 24.916 7.08789 24.9844C6.95117 25.0527 6.81445 24.9844 6.67773 24.916C6.60938 24.7793 6.54102 24.5742 6.67773 24.5059ZM5.92578 23.959C5.99414 23.8906 6.0625 23.8906 6.19922 23.959C6.33594 24.0273 6.4043 24.0957 6.4043 24.1641C6.33594 24.3008 6.19922 24.3008 6.0625 24.2324C5.92578 24.1641 5.85742 24.0957 5.92578 23.959ZM8.11328 26.4199C8.25 26.2832 8.45508 26.3516 8.5918 26.4883C8.72852 26.625 8.72852 26.8301 8.66016 26.8984C8.5918 27.0352 8.38672 26.9668 8.25 26.8301C8.04492 26.6934 8.04492 26.4883 8.11328 26.4199ZM7.36133 25.3945C7.49805 25.3262 7.63477 25.3945 7.77148 25.5312C7.83984 25.668 7.83984 25.873 7.77148 25.9414C7.63477 26.0098 7.49805 25.9414 7.36133 25.8047C7.22461 25.668 7.22461 25.4629 7.36133 25.3945Z" fill="#A79AE0"/>
</svg>
